<?xml version="1.0" encoding="utf-8"?><!-- Generator: Adobe Illustrator 26.0.0, SVG Export Plug-In . SVG Version: 6.00 Build 0)  --><svg id="Group_1190" data-name="Group 1190" xmlns="http://www.w3.org/2000/svg" xmlns:xlink="http://www.w3.org/1999/xlink" width="371.501" height="141.441" viewBox="0 0 371.501 141.441">  <defs>    <clipPath id="clip-path">      <rect id="Rectangle_703" data-name="Rectangle 703" width="371.501" height="141.441" fill="none"/>    </clipPath>  </defs>  <g id="Group_1189" data-name="Group 1189" clip-path="url(#clip-path)">    <path id="Path_4277" data-name="Path 4277" d="M128.406,95.423a6.907,6.907,0,0,0-9.626-1.666,100.271,100.271,0,0,1-39.934,16.335,99.859,99.859,0,0,1-44.286-1.8,6.907,6.907,0,0,0-3.733,13.3,112.547,112.547,0,0,0,43.85,3.086l1.973,11.066a6.908,6.908,0,0,0,13.6-2.433l-1.98-11.1a112.9,112.9,0,0,0,38.469-17.168,6.907,6.907,0,0,0,1.667-9.626" fill="#fcd25b"/>    <path id="Path_4278" data-name="Path 4278" d="M119.866,22.2c-12.26-5.66-29.131-7.03-50.219-4.1L67.423,5.692a6.907,6.907,0,1,0-13.6,2.433l2.213,12.358c-21.59,4.541-37.249,11.781-46.589,21.56A34.173,34.173,0,0,0,1.112,55.924,24.435,24.435,0,0,0,.325,67.13l6.193,34.623a6.908,6.908,0,0,0,13.6-2.433L13.924,64.7c-.184-1.032-.786-6.514,5.515-13.112,5.578-5.841,17.914-13.82,45.005-18.666,27.21-4.868,42.008-1.694,49.631,1.826,9.236,4.264,10.349,9.938,10.392,10.177l6.193,34.624a6.907,6.907,0,0,0,13.6-2.433L138.066,42.49c-.544-3.039-3.463-13.484-18.2-20.288" fill="#00a8e3"/>    <path id="Path_4279" data-name="Path 4279" d="M97.135,52.06a18.722,18.722,0,0,0-15.116,21.7,6.908,6.908,0,0,0,13.6-2.433,4.885,4.885,0,1,1,9.618-1.721,6.908,6.908,0,0,0,13.6-2.432,18.722,18.722,0,0,0-21.7-15.116" fill="#00a8e3"/>    <path id="Path_4280" data-name="Path 4280" d="M44.631,61.367A17.321,17.321,0,1,0,61.952,78.688,17.321,17.321,0,0,0,44.631,61.367" fill="#00a8e3"/>    <path id="Path_4281" data-name="Path 4281" d="M206.52,60.766h-46.4l.056,20.354a7.482,7.482,0,0,0,7.481,7.462h38.028a11.273,11.273,0,0,0,8.478-4.448q3.179-3.6,3.254-9.6a15.893,15.893,0,0,0-2.649-9.177,12.213,12.213,0,0,0-8.25-4.589m-1.161,20.673H171.515a3.7,3.7,0,0,1-3.7-3.7V67.626h36.1q5.978.659,5.98,7.17-.454,5.854-4.542,6.643" fill="#3e3a39"/>    <path id="Path_4282" data-name="Path 4282" d="M209.673,44.682q0,2.423-2.271,2.422H166l27.778-23.918H181.97L155.706,46.2a6.166,6.166,0,0,0-1.06,3.1q0,4.694,4.466,5.071h50.41a9.108,9.108,0,0,0,5.828-1.741,6.178,6.178,0,0,0,2.346-4.92V33.749h-8.023Z" fill="#3e3a39"/>    <path id="Path_4283" data-name="Path 4283" d="M277.379,33.706h-10.37v-10.9h-7.8v10.9H240.058a5.973,5.973,0,0,0-5.973,5.974V72.308h25.129V91h7.8v-18.7H280.18q15.06-1.135,15.062-19.528-.379-19.074-17.863-19.074M259.214,64.739H241.578V44.865a3.967,3.967,0,0,1,3.968-3.968h13.668Zm19.906,0H267.009V40.9h10.37q10.445,0,10.445,12.11,0,10.6-8.7,11.732" fill="#3e3a39"/>    <path id="Path_4284" data-name="Path 4284" d="M326.844,77.834h6.585V69.28H344.4v8.7h6.509v-8.7h12.111q-.681,4.166-4.617,4.163a26.408,26.408,0,0,1-4.163-.3v6.207a37.887,37.887,0,0,0,4.314.227q10.974-.378,11.5-12.489a28.023,28.023,0,0,0,.3-4.239,85.365,85.365,0,0,0-.455-9.461q-.227-11.277-11.655-12.489h-1.742q-.38-.378-.908-.908,2.346-1.513,5.526-3.709a8.117,8.117,0,0,0,4.087-7.115q-.455-4.239-5.3-4.768H327.45v5.9h28.762q.982,0,.984,1.135,0,1.061-7.721,4.617-6.965-3.1-18.544-4.012v5.753a55.084,55.084,0,0,1,14.987,3.1H326.769Zm24.069-31.109h6.51q4.768.38,5.374,5.6H350.913Zm0,11.278h12.565q.15,1.893.151,3.86v1.666H350.913ZM333.429,46.725H344.4v5.6H333.429Zm0,11.278H344.4v5.526H333.429Z" fill="#3e3a39"/>    <path id="Path_4285" data-name="Path 4285" d="M322.168,33.822c-3.532-3.33-9.22-5.6-15.441-6.849v7.483c6.184,1.357,12.059,4.261,15.441,7.692Z" fill="#3e3a39"/>    <path id="Path_4286" data-name="Path 4286" d="M371.425,82.3q-7.191.528-22.707.53c-10.344-.3-17.741-.893-22.235-3.03-2.929-1.325-4.493-3.151-4.493-6.431V66.555a9.409,9.409,0,0,0-3.453-6.464,23.691,23.691,0,0,0,3.68-2.732v-8.33q-5.3-5-15.441-7.417V49.1a46.684,46.684,0,0,1,9.779,4.061,48.259,48.259,0,0,1-10.148,4.138v7.483c.023,0,5.819,0,5.819,0q2.875,1.061,2.876,3.329v3.445c-.808,4.34-3.846,6.88-9.007,9v8.412q8.628-2.2,11.505-6.584c4.591,4.541,14.794,6.963,29.226,7.266q21.041,0,24.675-.682Z" fill="#3e3a39"/>    <path id="Path_4287" data-name="Path 4287" d="M191.274,100.237c-6.2.1-22.311.089-28.145,0a2.892,2.892,0,0,0-3.116,2.922,3,3,0,0,0,3.223,2.972c1.239,0,2.477-.026,3.651-.054,1.076-.023,2.922-.05,4.445-.05,1.075,0,1.989.013,2.357.052l.5.052v.5c.1,2.6.1,7.087.1,11.425,0,5.845-.039,13.551-.149,17.653,0,1.912,1.7,2.883,3.372,2.883a3.741,3.741,0,0,0,2.692-1,2.428,2.428,0,0,0,.685-1.882c-.152-3.565-.253-9.9-.253-15.765,0-5.124.058-10.217.152-13.3l.014-.47.465-.062c.572-.079,3.013-.085,5.679-.085,1.174,0,2.637,0,4.377.1h.168a2.738,2.738,0,0,0,2.774-2.922,3.121,3.121,0,0,0-.917-2.244,3.007,3.007,0,0,0-2.071-.728" fill="#3e3a39"/>    <path id="Path_4288" data-name="Path 4288" d="M228.139,126.97a3.282,3.282,0,0,0-2.754,1.407c-1.86,2.424-5.416,3.929-9.281,3.929-8.7,0-12.655-6.684-12.655-12.894,0-6.527,4.314-13.135,12.557-13.135a10.252,10.252,0,0,1,7.982,3.3,3.591,3.591,0,0,0,2.852,1.456,3.438,3.438,0,0,0,3.425-3.359c0-2.622-5.225-7.437-13.76-7.437-12.8,0-19.7,10.056-19.7,19.517,0,9.362,6.717,18.837,19.552,18.837,9.618,0,15.458-5.67,15.458-8.163a3.665,3.665,0,0,0-3.674-3.457" fill="#3e3a39"/>    <path id="Path_4289" data-name="Path 4289" d="M258.052,100.383c-.755-.046-1.763-.1-2.823-.1-1.613,0-6.87.09-8,.263-5.85.888-6.135,3.94-6.135,9.257,0,1.537.019,3.349.044,5.337l0,.342c.025,2.316.052,4.861.052,7.471,0,5.105-.079,8.97-.25,12.161v.166a2.993,2.993,0,0,0,3.224,2.821,3.044,3.044,0,0,0,3.274-3.034v-1.876c0-1.593-.038-3.246-.074-4.875l.55-.187-.554.013c-.032-1.368-.062-2.72-.067-4.1v-.67l.658.124a53.872,53.872,0,0,0,10.8.045,11.963,11.963,0,0,0,11.185-11.9c0-5.243-3.674-10.76-11.884-11.267m-.267,17.466c-1.015.1-2.057.146-3.005.146-2.2,0-7.33-.083-7.567-.842l-.024-.165v-.824c0-.848-.013-1.767-.026-2.688l-.006-.537c-.009-.741-.017-1.475-.017-2.161,0-3.059,0-4.325,1.845-4.611.357-.057,2.408-.084,6.1-.084,1.118,0,2.237.042,2.4.048,4.472,0,6.061,2.842,6.061,5.277a6.455,6.455,0,0,1-5.755,6.441" fill="#3e3a39"/>    <path id="Path_4290" data-name="Path 4290" d="M292.4,104.213a5.32,5.32,0,0,0-5-3.588,5,5,0,0,0-4.748,3.485c-9.818,26.812-11.058,30.317-11.058,31.266a3.008,3.008,0,0,0,3.225,2.777,3.22,3.22,0,0,0,3.158-2.245c.484-1.5,1.134-3.492,1.87-5.745l.628-2.1H294.6l.13.373c.021.063,2.2,6.343,2.745,7.629a3.328,3.328,0,0,0,3.208,2.037,3.171,3.171,0,0,0,3.375-2.97,4.191,4.191,0,0,0-.337-1.561c-1.691-3.769-8.158-20.72-11.319-29.36m-10.091,18.315.256-.737c.153-.44,3.7-10.639,4.513-12.765l.571-1.587.509,1.516c.758,2.261,4.346,12.841,4.346,12.841l.248.732Z" fill="#3e3a39"/>    <path id="Path_4291" data-name="Path 4291" d="M328.281,117.457c-1.206-.635-2.722-1.363-4.19-2.067l-.326-.156c-1.217-.584-2.381-1.143-3.286-1.616-1.868-.949-2.943-2.393-2.943-3.957,0-1.874,1.638-3.774,4.767-3.774a7.112,7.112,0,0,1,5.448,2.1,3.611,3.611,0,0,0,2.641,1.294,3.213,3.213,0,0,0,3.175-3.165c0-2.759-4.606-5.834-11.214-5.834-7.252,0-11.164,4.931-11.164,9.57,0,3.838,2.471,7.222,6.609,9.051,2.551,1.125,5.119,2.5,7.515,3.821,2.289,1.239,3.6,3.109,3.6,5.128,0,.049-.072,4.84-6.314,4.84a8.376,8.376,0,0,1-6.978-3.1,3.085,3.085,0,0,0-2.509-1.365,3.248,3.248,0,0,0-3.275,3.117c0,2.527,4.366,7.241,12.713,7.241,8.45,0,13.01-5.606,13.01-10.881,0-4.1-2.587-7.74-7.282-10.252" fill="#3e3a39"/>    <path id="Path_4292" data-name="Path 4292" d="M360.166,117.457c-1.226-.646-2.776-1.389-4.269-2.106-1.3-.625-2.565-1.23-3.528-1.731-1.871-.951-2.945-2.393-2.945-3.959,0-1.874,1.638-3.774,4.766-3.774a7.116,7.116,0,0,1,5.449,2.1,3.605,3.605,0,0,0,2.64,1.294,3.213,3.213,0,0,0,3.174-3.165c0-2.759-4.605-5.834-11.214-5.834-7.25,0-11.162,4.931-11.162,9.57,0,3.84,2.471,7.224,6.608,9.051,2.545,1.122,5.116,2.5,7.515,3.821,2.289,1.24,3.6,3.111,3.6,5.128,0,.049-.072,4.84-6.314,4.84a8.377,8.377,0,0,1-6.979-3.1A3.075,3.075,0,0,0,345,128.232a3.248,3.248,0,0,0-3.276,3.117c0,2.527,4.366,7.241,12.714,7.241,8.45,0,13.009-5.606,13.009-10.881,0-4.1-2.586-7.742-7.283-10.252" fill="#3e3a39"/>  </g></svg>