<svg width="77" height="70" viewBox="0 0 77 70" fill="none" xmlns="http://www.w3.org/2000/svg">
<path d="M55.2833 2.4165H21.6375C16.3884 2.4165 11.3543 4.43584 7.64267 8.03029C3.93101 11.6247 1.84583 16.4999 1.84583 21.5832V48.4165C1.84583 50.9335 2.35775 53.4259 3.35238 55.7513C4.347 58.0767 5.80484 60.1896 7.64267 61.9694C11.3543 65.5638 16.3884 67.5832 21.6375 67.5832H55.2833C57.8824 67.5832 60.456 67.0874 62.8573 66.1242C65.2585 65.161 67.4403 63.7492 69.2781 61.9694C71.116 60.1896 72.5738 58.0767 73.5684 55.7513C74.5631 53.4259 75.075 50.9335 75.075 48.4165V21.5832C75.075 19.0662 74.5631 16.5738 73.5684 14.2484C72.5738 11.923 71.116 9.81008 69.2781 8.03029C67.4403 6.2505 65.2585 4.83869 62.8573 3.87548C60.456 2.91226 57.8824 2.4165 55.2833 2.4165Z" stroke="#1E1E1E" stroke-width="3" stroke-linecap="round" stroke-linejoin="round"/>
<path d="M2.83545 54.1666L13.7209 41.9C15.1452 40.53 17.0146 39.6786 19.0127 39.49C21.0107 39.3014 23.0147 39.7871 24.6855 40.865C26.3562 41.9428 28.3602 42.4285 30.3582 42.2399C32.3563 42.0513 34.2257 41.2 35.65 39.83L44.8729 30.8983C47.523 28.3232 51.0317 26.7438 54.7729 26.4418C58.5141 26.1399 62.2443 27.1352 65.298 29.25L75.1542 36.6483M22.6271 27.985C23.49 27.985 24.3445 27.8204 25.1417 27.5006C25.9389 27.1808 26.6632 26.7121 27.2734 26.1212C27.8836 25.5303 28.3676 24.8288 28.6978 24.0568C29.028 23.2847 29.1979 22.4573 29.1979 21.6216C29.1979 20.786 29.028 19.9585 28.6978 19.1865C28.3676 18.4145 27.8836 17.713 27.2734 17.1221C26.6632 16.5312 25.9389 16.0625 25.1417 15.7427C24.3445 15.4229 23.49 15.2583 22.6271 15.2583C20.8844 15.2583 19.2131 15.9287 17.9808 17.1221C16.7486 18.3154 16.0563 19.934 16.0563 21.6216C16.0563 23.3093 16.7486 24.9278 17.9808 26.1212C19.2131 27.3145 20.8844 27.985 22.6271 27.985Z" stroke="#1E1E1E" stroke-width="3" stroke-linecap="round" stroke-linejoin="round"/>
</svg>
